<svg id="Capa_1" enable-background="new 0 0 512 512" height="512" viewBox="0 0 512 512" width="512" xmlns="http://www.w3.org/2000/svg"><g><g><g><circle cx="267" cy="261.251" fill="#6c7fd8" r="245"/></g></g><g><path d="m202.785 119.369c5.401 0 10.721.355 15.94 1.035 10.802-12.189 17.393-28.185 17.393-45.654 0-37.95-31.05-69.001-69.001-69.001h-98.116c-37.951 0-69.001 31.051-69.001 69.001 0 37.95 31.05 69.001 69.001 69.001h60.465c20.466-15.308 45.853-24.382 73.319-24.382z" fill="#4f66d0"/><path d="m42 74.75c0-37.95 31.05-69.001 69.001-69.001h-42c-37.951 0-69.001 31.051-69.001 69.001 0 37.95 31.05 69.001 69.001 69.001h42c-37.951 0-69.001-31.051-69.001-69.001z" fill="#314dc9"/><g><g fill="#97d729"><path d="m77.201 70.899c1.699-2.97 2.684-6.398 2.684-10.058 0-11.215-9.124-20.339-20.339-20.339h-17.118c-4.142 0-7.5 3.358-7.5 7.5v25.678 27.817c0 4.142 3.358 7.5 7.5 7.5h21.398c11.805 0 21.409-9.604 21.409-21.409-.001-6.744-3.144-12.762-8.034-16.689zm-27.273-15.397h9.618c2.944 0 5.339 2.395 5.339 5.339s-2.395 5.339-5.339 5.339h-9.618zm13.898 38.496h-13.898v-12.818h13.898c3.534 0 6.409 2.875 6.409 6.409s-2.876 6.409-6.409 6.409z"/><path d="m118.246 40.502c-13.87 0-25.153 11.284-25.153 25.153v18.188c0 13.87 11.284 25.153 25.153 25.153s25.153-11.284 25.153-25.153v-18.187c0-13.87-11.283-25.154-25.153-25.154zm10.153 43.342c0 5.599-4.555 10.153-10.153 10.153s-10.153-4.555-10.153-10.153v-18.188c0-5.599 4.555-10.153 10.153-10.153s10.153 4.555 10.153 10.153z"/></g><g><path d="m176.037 108.998c-13.87 0-25.153-11.284-25.153-25.153v-18.189c0-13.87 11.284-25.153 25.153-25.153s25.153 11.284 25.153 25.153v18.188c0 13.87-11.283 25.154-25.153 25.154zm0-53.496c-5.599 0-10.153 4.555-10.153 10.153v18.188c0 5.599 4.555 10.153 10.153 10.153s10.153-4.555 10.153-10.153v-18.187c0-5.599-4.554-10.154-10.153-10.154z" fill="#97d729"/></g></g></g><g><g><path d="m326.452 312.719v-70.683c0-68.299-55.367-123.667-123.667-123.667-68.299 0-123.667 55.367-123.667 123.667v44.286c0 88.944 72.104 161.048 161.048 161.048h147.206c9.135 0 13.694-11.06 7.213-17.497l-33.023-32.799c-22.473-22.32-35.11-52.683-35.11-84.355z" fill="#fff"/></g><path d="m121 286.321v-44.286c0-61.161 44.401-111.943 102.726-121.892-6.808-1.161-13.802-1.774-20.941-1.774-68.299 0-123.667 55.367-123.667 123.667v44.286c0 88.944 72.104 161.048 161.048 161.048h41.882c-88.944-.001-161.048-72.104-161.048-161.049z" fill="#fbf0ff"/><g><g><g><path d="m148.298 265.412c-12.165 0-22.118-9.953-22.118-22.118v-33.177c0-12.165 9.953-22.118 22.118-22.118 12.165 0 22.118 9.953 22.118 22.118v33.177c-.001 12.165-9.954 22.118-22.118 22.118z" fill="#eadeff"/></g></g><path d="m147 243.294v-33.177c0-8.407 4.755-15.756 11.708-19.495-3.107-1.671-6.652-2.623-10.41-2.623-12.165 0-22.118 9.953-22.118 22.118v33.177c0 12.165 9.953 22.118 22.118 22.118 3.758 0 7.303-.952 10.41-2.623-6.953-3.739-11.708-11.088-11.708-19.495z" fill="#d3c4f7"/><g><path d="m236.768 265.412c-12.165 0-22.118-9.953-22.118-22.118v-33.177c0-12.165 9.953-22.118 22.118-22.118 12.165 0 22.118 9.953 22.118 22.118v33.177c0 12.165-9.953 22.118-22.118 22.118z" fill="#eadeff"/></g><path d="m235 243.294v-33.177c0-8.501 4.864-15.917 11.943-19.615-3.051-1.594-6.511-2.502-10.175-2.502-12.165 0-22.118 9.953-22.118 22.118v33.177c0 12.165 9.953 22.118 22.118 22.118 3.664 0 7.124-.908 10.175-2.502-7.079-3.7-11.943-11.116-11.943-19.617z" fill="#d3c4f7"/></g><g><path d="m228.935 332.686h-72.804c-13.178 0-23.961-10.782-23.961-23.961 0-13.178 10.782-23.961 23.961-23.961h72.804c13.178 0 23.961 10.782 23.961 23.961 0 13.179-10.783 23.961-23.961 23.961z" fill="#eadeff"/></g><path d="m174 308.726c0-13.178 10.782-23.961 23.961-23.961h-41.83c-13.178 0-23.961 10.782-23.961 23.961 0 13.178 10.782 23.961 23.961 23.961h41.83c-13.179-.001-23.961-10.783-23.961-23.961z" fill="#d3c4f7"/></g><g><g><path d="m347.342 155.008v-40.488c0-37.705 30.566-68.27 68.27-68.27 37.704.001 68.269 30.566 68.269 68.27v15.177c0 54.221-43.955 98.176-98.176 98.176h-83.273c-2.039 0-3.807-.631-5.216-1.662-5.703-4.173-3.388-13.262 3.533-14.685l12.817-2.636c7.998-1.645 15.193-6.085 20.077-12.629 8.819-11.814 13.699-26.26 13.699-41.253z" fill="#d5daf3"/></g><path d="m320.75 220.275 12.817-2.636c7.998-1.645 15.193-6.085 20.077-12.629 8.818-11.815 13.698-26.26 13.698-41.253v-40.487c0-37.705 30.566-68.27 68.27-68.27 5.847 0 11.522.738 16.939 2.121-10.65-6.868-23.323-10.87-36.939-10.87-37.705 0-68.27 30.565-68.27 68.27v40.488c0 14.993-4.88 29.438-13.698 41.253-4.884 6.544-12.079 10.984-20.077 12.629l-12.817 2.636c-6.922 1.423-9.236 10.513-3.533 14.685 1.409 1.031 3.177 1.662 5.216 1.662h11.611c.311-3.471 2.752-6.785 6.706-7.599z" fill="#bec6ed"/><g><g><path d="m395.889 134.746c-6.894 0-12.535-5.641-12.535-12.535v-18.803c0-6.894 5.641-12.535 12.535-12.535 6.894 0 12.535 5.641 12.535 12.535v18.803c0 6.894-5.64 12.535-12.535 12.535z" fill="#bec6ed"/></g><path d="m393.93 122.211v-18.803c0-5.005 2.98-9.337 7.247-11.342-1.611-.757-3.399-1.193-5.288-1.193-6.894 0-12.535 5.641-12.535 12.535v18.803c0 6.894 5.641 12.535 12.535 12.535 1.889 0 3.677-.436 5.288-1.193-4.267-2.004-7.247-6.337-7.247-11.342z" fill="#8795de"/><g><path d="m446.029 134.746c-6.894 0-12.535-5.641-12.535-12.535v-18.803c0-6.894 5.641-12.535 12.535-12.535 6.894 0 12.535 5.641 12.535 12.535v18.803c0 6.894-5.64 12.535-12.535 12.535z" fill="#bec6ed"/></g><path d="m443.93 122.211v-18.803c0-5.033 3.012-9.386 7.317-11.376-1.592-.736-3.356-1.159-5.218-1.159-6.894 0-12.535 5.641-12.535 12.535v18.803c0 6.894 5.641 12.535 12.535 12.535 1.862 0 3.625-.422 5.218-1.159-4.305-1.99-7.317-6.343-7.317-11.376z" fill="#8795de"/></g><g><path d="m441.59 172.874h-41.261c-7.469 0-13.58-6.111-13.58-13.58 0-7.469 6.111-13.58 13.58-13.58h41.261c7.469 0 13.58 6.111 13.58 13.58-.001 7.469-6.111 13.58-13.58 13.58z" fill="#bec6ed"/></g><path d="m407.58 159.294c0-7.469 6.111-13.58 13.58-13.58h-20.831c-7.469 0-13.58 6.111-13.58 13.58s6.111 13.58 13.58 13.58h20.831c-7.47 0-13.58-6.111-13.58-13.58z" fill="#8795de"/></g><g><path d="m412.011 282.431c-10.992 4.02-15.81 8.838-19.83 19.83-.97 2.652-4.745 2.652-5.715 0-4.02-10.992-8.838-15.81-19.83-19.83-2.652-.97-2.652-4.745 0-5.715 10.992-4.02 15.81-8.838 19.83-19.83.97-2.652 4.745-2.652 5.715 0 4.02 10.992 8.838 15.81 19.83 19.83 2.652.97 2.652 4.745 0 5.715z" fill="#fff"/></g><g><path d="m316.05 80.447c-7.206 2.635-10.364 5.794-13 13-.636 1.739-3.111 1.739-3.746 0-2.635-7.206-5.794-10.364-13-13-1.739-.636-1.739-3.111 0-3.746 7.206-2.635 10.364-5.794 13-13 .636-1.739 3.111-1.739 3.746 0 2.635 7.206 5.794 10.364 13 13 1.738.636 1.738 3.11 0 3.746z" fill="#fff"/></g><g><path d="m476.696 251.05c-7.206 2.635-10.364 5.794-13 13-.636 1.739-3.111 1.739-3.746 0-2.635-7.206-5.794-10.364-13-13-1.739-.636-1.739-3.111 0-3.746 7.206-2.635 10.364-5.794 13-13 .636-1.739 3.111-1.739 3.746 0 2.635 7.206 5.794 10.364 13 13 1.739.635 1.739 3.11 0 3.746z" fill="#fff"/></g><g><path d="m445.348 358.874c-9.131 3.34-13.134 7.342-16.474 16.474-.806 2.203-3.942 2.203-4.748 0-3.34-9.131-7.342-13.134-16.474-16.474-2.203-.806-2.203-3.942 0-4.748 9.131-3.339 13.134-7.342 16.474-16.474.806-2.203 3.942-2.203 4.748 0 3.34 9.131 7.342 13.134 16.474 16.474 2.203.806 2.203 3.942 0 4.748z" fill="#d5daf3"/></g><g fill="#d5daf3"><circle cx="285.5" cy="289.5" r="17.5"/><circle cx="110.5" cy="289.5" r="17.5"/></g></g></svg>