<svg id="Capa_1" enable-background="new 0 0 512 512" height="512" viewBox="0 0 512 512" width="512" xmlns="http://www.w3.org/2000/svg"><g><path d="m256 22c-135.31 0-245 109.69-245 245 0 34.46 7.128 67.252 19.969 97l2.25 1h445.562l2.25-1c12.841-29.748 19.969-62.54 19.969-97 0-135.31-109.69-245-245-245z" fill="#902592"/><g><g><path d="m87.727 232.18h20.721c6.075-4.854 8.467-13.779 4.068-21.398l-11.65-20.178c-1.235-2.139-4.322-2.139-5.557 0l-11.65 20.178c-4.398 7.619-2.007 16.544 4.068 21.398z" fill="#fed402"/><path d="m86.596 231.18h10.23c-5.224-5.01-7.053-13.272-2.939-20.398l9.315-16.133-2.335-4.045c-1.235-2.139-4.322-2.139-5.557 0l-11.65 20.178c-4.114 7.125-2.285 15.386 2.936 20.398z" fill="#fac600"/><g><path d="m61.17 365h70.408l26.203-75.516c1.725-4.972.902-10.475-2.204-14.724l-17.3-23.668h-83.807l-17.3 23.668c-3.106 4.249-3.929 9.751-2.204 14.724z" fill="#fe9901"/><path d="m60.823 364h31.333l-25.856-74.516c-1.725-4.972-.902-10.475 2.204-14.724l16.569-22.668h-31.334l-16.568 22.668c-3.106 4.249-3.929 9.751-2.204 14.724z" fill="#fb8801"/><path d="m144.409 252.092h-96.07c-2.953 0-5.347-2.394-5.347-5.347v-10.219c0-2.953 2.394-5.347 5.347-5.347h96.07c2.953 0 5.347 2.394 5.347 5.347v10.219c-.001 2.954-2.395 5.347-5.347 5.347z" fill="#fea613"/><path d="m84.237 246.746v-10.219c0-2.953 2.394-5.347 5.347-5.347h-41.245c-2.953 0-5.347 2.394-5.347 5.347v10.219c0 2.953 2.394 5.347 5.347 5.347h41.245c-2.954 0-5.347-2.394-5.347-5.347z" fill="#fb8801"/></g></g><g><path d="m406.98 232.18h20.721c6.075-4.854 8.467-13.779 4.068-21.398l-11.65-20.178c-1.235-2.139-4.322-2.139-5.557 0l-11.65 20.178c-4.399 7.619-2.007 16.544 4.068 21.398z" fill="#fed402"/><path d="m405.849 231.18h10.345c-5.224-5.01-7.051-13.273-2.937-20.398l9.256-16.031-2.394-4.147c-1.235-2.139-4.322-2.139-5.557 0l-11.65 20.178c-4.113 7.125-2.284 15.386 2.937 20.398z" fill="#fac600"/><g><path d="m380.423 365h70.408l26.203-75.516c1.725-4.972.902-10.475-2.204-14.724l-17.3-23.668h-83.807l-17.3 23.668c-3.106 4.249-3.929 9.751-2.204 14.724z" fill="#fe9901"/><g><path d="m363.137 280c8.975 0 17.356 2.515 24.499 6.863-.704-4.219.299-8.589 2.867-12.103l16.569-22.668h-34.08l-16.569 22.668c-1.17 1.6-2.015 3.379-2.523 5.24z" fill="#fb8801"/></g><path d="m463.661 252.092h-96.07c-2.953 0-5.347-2.394-5.347-5.347v-10.219c0-2.953 2.394-5.347 5.347-5.347h96.07c2.953 0 5.347 2.394 5.347 5.347v10.219c0 2.954-2.394 5.347-5.347 5.347z" fill="#fea613"/><path d="m405.236 246.746v-10.219c0-2.953 2.394-5.347 5.347-5.347h-42.992c-2.953 0-5.347 2.394-5.347 5.347v10.219c0 2.953 2.394 5.347 5.347 5.347h42.992c-2.953 0-5.347-2.394-5.347-5.347z" fill="#fb8801"/></g></g></g><g fill="#b342bc"><path d="m30.969 364c15.777 36.551 40.198 68.495 70.684 93.261l1-.48v-92.781z"/><path d="m409.348 364v92.781l1 .48c30.486-24.766 54.907-56.71 70.684-93.261z"/></g><g><g><path d="m303.348 248.728c-3.4.468-6.844.714-10.313.714h-74.07c-3.469 0-6.913-.246-10.313-.714v32.272h94.696z" fill="#fbf0ff"/><path d="m240 250.441h-21.035c-3.497 0-6.938-.24-10.313-.688v30.247h31.348z" fill="#eadeff"/><g fill="#fbf0ff"><path d="m409.348 406h-306.696l-1 1v50.258c42.131 34.221 95.84 54.742 154.348 54.742s112.217-20.521 154.348-54.742v-50.258z"/><path d="m363.137 280h-214.274c-26.074 0-47.21 21.137-47.21 47.21v14.25l1 1.567 306.695 36.941 1-.447v-52.311c0-26.073-21.137-47.21-47.211-47.21z"/></g><path d="m373.52 482c13.04-7.145 25.365-15.432 36.828-24.742v-36.046l-308.696 34.623v1.423c11.462 9.31 23.788 17.597 36.828 24.742z" fill="#eadeff"/><path d="m410.13 322.719c-2.263-23.966-22.435-42.719-46.993-42.719h-214.274c-26.074 0-47.21 21.137-47.21 47.21v14.25l1 1.567 82.493 9.936z" fill="#fff"/><path d="m410.348 379.522-308.696-38.061v65.539h308.696z" fill="#eadeff"/><path d="m293.035 250.441h-74.07c-42.818 0-77.528-34.711-77.528-77.528v-110.844c-.001-34.28 27.789-62.069 62.069-62.069h104.989c34.28 0 62.069 27.789 62.069 62.069v110.844c0 42.818-34.711 77.528-77.529 77.528z" fill="#eadeff"/><path d="m156.626 219c14.124 19.073 36.784 31.441 62.339 31.441h74.07c25.555 0 48.216-12.369 62.339-31.441z" fill="#fff"/><path d="m348.463 145c-.159 4.824-4.123 8.702-8.985 8.702h-166.956c-4.862 0-8.826-3.878-8.985-8.702h-22.101v27.913c0 2.143.11 4.26.281 6.359l223.339 22.334c3.54-8.877 5.507-18.553 5.507-28.693v-27.913z" fill="#fbf0ff"/><path d="m370.525 60c-.184-5.579-1.104-10.971-2.665-16.083l-201.453-31.613c-14.642 10.932-24.295 28.174-24.934 47.696z" fill="#d3c4f7"/></g><path d="m370.511 60h-229.022c-.023.688-.052 1.375-.052 2.069v52.578l22.2-3.732c.589-3.792 3.525-6.836 7.42-7.478l166.957-27.533c.493-.082.992-.123 1.485-.123 3.227 0 6.053 1.721 7.636 4.29l23.429-3.938v-14.064c0-.694-.03-1.381-.053-2.069z" fill="#fbf0ff"/><path d="m172.522 154.702h166.957c5.523 0 10-4.477 10-10v-59.918c0-6.172-5.537-10.871-11.627-9.867l-166.957 27.533c-4.83.796-8.373 4.972-8.373 9.867v32.385c0 5.522 4.477 10 10 10z" fill="#bb5d4c"/><path d="m186 144.018v-37.062c0-2.824 1.032-5.437 2.762-7.452l-17.868 2.947c-4.83.797-8.373 4.972-8.373 9.867v32.385c0 5.523 4.477 10 10 10h20.848c-4.305-1.645-7.369-5.802-7.369-10.685z" fill="#a44f3e"/><g fill="#4b3087"><circle cx="210.679" cy="123.267" r="16.652"/><circle cx="301.321" cy="123.267" r="16.652"/></g></g><path d="m271.357 154.702-10.049-27.128c-.823-2.221-2.941-3.695-5.309-3.695s-4.486 1.474-5.309 3.695l-10.049 27.128z" fill="#a44f3e"/><g fill="#d3c4f7"><path d="m144.75 359.5c-4.142 0-7.5 3.358-7.5 7.5v114.319c4.9 2.721 9.901 5.281 15 7.669v-121.988c0-4.142-3.358-7.5-7.5-7.5z"/><path d="m374.75 481.319v-114.319c0-4.142-3.358-7.5-7.5-7.5s-7.5 3.358-7.5 7.5v121.989c5.099-2.388 10.1-4.948 15-7.67z"/></g></g></svg>