<svg id="Capa_1" enable-background="new 0 0 512 512" height="512" viewBox="0 0 512 512" width="512" xmlns="http://www.w3.org/2000/svg"><g><g><g><circle cx="256" cy="267" fill="#fed402" r="245"/></g></g><path d="m97 238.513c0-7.448-6.038-13.487-13.487-13.487h-37.026c-7.448 0-13.487 6.038-13.487 13.487s6.038 13.487 13.487 13.487h37.027c7.448 0 13.486-6.038 13.486-13.487z" fill="#fea613"/><g><path d="m170.299 418.562-37.544-30.035c-1.632-1.306-1.729-3.153-1.276-4.446.454-1.294 1.684-2.677 3.775-2.677h48.916l-1.548-1.678c-8.642-9.366-15.185-20.169-19.449-32.108l-.237-.664h-5.22c-16.936 0-30.715-13.778-30.715-30.715v-6.714c0-10.386 5.196-19.992 13.899-25.697.653-.428 1.411-.654 2.193-.654.833 0 1.629.254 2.304.735 3.484 2.483 7.232 4.716 11.14 6.637 4.93 2.423 10.074 4.332 15.292 5.678l.797.653c3.163 13.125 14.756 22.261 28.313 22.261 14.825 0 27.269-11.091 28.947-25.798.098-.857-.165-1.686-.742-2.332-.283-.317-.628-.567-1.007-.739 7.719-3.865 14.732-8.926 20.864-15.058 3.904-3.904 7.414-8.217 10.434-12.819v-.73h-121.437c-19.18 11.663-31.998 32.748-31.998 56.838 0 6.526.956 12.826 2.708 18.784-28.34 7.614-49.208 33.472-49.208 64.216 0 4.7.49 9.286 1.417 13.711 17.023 22.372 37.805 41.729 61.405 57.127z" fill="#fb2b3a"/><path d="m189.282 297.737c2.094 4.372 6.547 7.4 11.718 7.4 6.272 0 11.505-4.442 12.728-10.351-7.973 2.251-16.225 3.234-24.446 2.951z" fill="#fd8087"/><path d="m403.292 337.285c1.752-5.959 2.708-12.258 2.708-18.784 0-24.08-12.8-45.17-31.966-56.84h-19.75v17.145l.969.029c16.68.518 29.747 13.998 29.747 30.69v6.714c0 16.937-13.779 30.715-30.715 30.715h-5.22l-.237.664c-4.264 11.939-10.807 22.742-19.449 32.108l-1.548 1.678h48.916c2.091 0 3.321 1.383 3.775 2.677.454 1.293.356 3.141-1.276 4.446l-37.544 30.035 47.977 53.776c23.599-15.398 44.381-34.754 61.405-57.127.927-4.425 1.417-9.01 1.417-13.711-.001-30.744-20.869-56.602-49.209-64.215z" fill="#fb2b3a"/></g><g><path d="m342.483 417.936-83.984 67.187c-.707.566-1.594.877-2.499.877s-1.792-.312-2.499-.877l-83.984-67.187-48.037 53.843c38.614 25.417 84.835 40.221 134.52 40.221s95.906-14.804 134.52-40.221z" fill="#5d3f9a"/></g><g><path d="m168.85 418.683-47.37 53.095c10.039 6.608 20.596 12.491 31.591 17.591l43.371-48.613z" fill="#4b3087"/></g><path d="m376.746 380.403h-48.058c-17.154 18.209-41.473 29.597-68.404 29.597h-8.568c-26.931 0-51.25-11.388-68.404-29.597h-48.058c-4.726 0-6.814 5.952-3.123 8.904l120.746 96.597c1.826 1.461 4.421 1.461 6.247 0l120.746-96.597c3.69-2.952 1.603-8.904-3.124-8.904z" fill="#7e5fc9"/><path d="m259.05 460.756c-1.695 1.659-4.406 1.659-6.101 0l-17.833-17.445c-3.282-3.211-5.86-7.004-7.646-11.136l-53.584-42.867c-3.691-2.953-1.603-8.904 3.123-8.904h-41.756c-4.726 0-6.814 5.952-3.123 8.904l120.746 96.597c1.826 1.461 4.421 1.461 6.247 0l17.755-14.204-15.962-12.77z" fill="#704fb9"/><path d="m260.284 410h-8.568c-9.427 0-18.532-1.401-27.124-3.995v12.287c0 9.416 3.794 18.435 10.525 25.019l17.833 17.445c1.695 1.659 4.406 1.659 6.101 0l17.833-17.445c6.731-6.584 10.525-15.603 10.525-25.019v-12.287c-8.593 2.594-17.698 3.995-27.125 3.995z" fill="#8bc727"/><path d="m252 418.292v-7.292h-.284c-9.426 0-18.528-1.38-27.124-3.936v11.228c0 9.416 3.794 18.435 10.525 25.019l17.833 17.445c1.695 1.659 4.406 1.659 6.101 0l10.654-10.422-7.179-7.023c-6.732-6.585-10.526-15.603-10.526-25.019z" fill="#81b823"/><g><path d="m157.716 290.021c-4.062-1.943-7.989-4.254-11.739-6.927-1.672-1.192-3.909-1.228-5.626-.103-8.641 5.664-14.351 15.429-14.351 26.533v6.714c0 17.516 14.199 31.715 31.715 31.715h5.597c-3.618-9.98-5.595-20.74-5.595-31.953v-25.979z" fill="#97d729"/><path d="m354.285 277.809h-.001v38.191c0 11.214-1.977 21.973-5.595 31.953h5.597c17.516 0 31.715-14.199 31.715-31.715v-6.714c-.001-17.515-14.2-31.715-31.716-31.715z" fill="#8bc727"/></g><path d="m258.716 261.66c-2.963 4.544-6.434 8.853-10.424 12.842-6.555 6.555-13.974 11.711-21.884 15.497l.489 1c.572 0 1.118.245 1.5.673.384.431.56.982.495 1.553-1.62 14.201-13.637 24.911-27.953 24.911-13.166 0-24.507-9.104-27.417-21.818l-1.229-1.01c-5.36-1.365-10.54-3.286-15.576-5.782v26.474c0 52.467 42.533 95 95 95h8.568c52.467 0 95-42.533 95-95v-54.34z" fill="#97d729"/><g><path d="m196.517 330.274c-12.912-2.623-22.947-16.553-23.982-33.782-.089-.392-.17-.786-.243-1.184-5.339-1.363-10.559-3.295-15.576-5.782v26.474c0 52.467 42.533 95 95 95h8.568c5.13 0 10.164-.412 15.074-1.195-40.657-6.483-72.694-38.763-78.841-79.531z" fill="#8bc727"/></g><g><g fill="#81b823"><path d="m228.316 296.492c-2.949 12.544-14.183 21.645-27.378 21.645-13.094 0-24.382-9.005-27.368-21.609l-1.034-.044c1.148 19.156 13.42 34.238 28.402 34.238 14.98 0 27.252-15.077 28.403-34.23z"/><path d="m338.97 293.551c-1.766 14.038-13.703 24.585-27.909 24.585s-26.142-10.547-27.908-24.585h-.592c0 20.529 12.76 37.17 28.5 37.17s28.5-16.641 28.5-37.17z"/></g><g><path d="m249.956 294.206-12.971 35.018c-1.559 4.209 1.555 8.684 6.044 8.684h25.942c4.489 0 7.603-4.474 6.044-8.684l-12.971-35.018c-.937-2.528-3.348-4.206-6.044-4.206-2.696 0-5.107 1.678-6.044 4.206z" fill="#81b823"/></g><g><path d="m226.897 290h-.489c-4.124 1.975-8.384 3.567-12.725 4.791l-1.394 1.42c-1.691 4.679-6.199 7.926-11.289 7.926-4.015 0-7.771-2.059-9.977-5.359l-1.741-1.04c-5.715-.197-11.414-1.005-16.989-2.428 2.497 13.556 14.368 23.828 28.646 23.828 14.963 0 27.291-11.278 28.947-25.798.202-1.78-1.199-3.34-2.989-3.34z" fill="#fff"/><path d="m189.282 297.737c2.094 4.372 6.547 7.4 11.718 7.4 6.272 0 11.505-4.442 12.728-10.351-7.973 2.251-16.225 3.234-24.446 2.951z" fill="#fd8087"/><g><g><path d="m285.103 290c-1.79 0-3.191 1.56-2.988 3.339 1.656 14.519 13.985 25.798 28.947 25.798 14.963 0 27.291-11.278 28.947-25.798.203-1.779-1.198-3.339-2.988-3.339z" fill="#fff"/></g></g></g><g><g><path d="m298 292.136c0 7.18 5.82 13 13 13s13-5.82 13-13c0-.729-.075-1.44-.19-2.136h-25.62c-.115.697-.19 1.407-.19 2.136z" fill="#fd8087"/></g></g></g><g fill="#5d3f9a"><path d="m338.042 163.257-57.825-117.537c-1.463-2.973.319-6.521 3.577-7.124l31.619-5.849c2.82-.522 3.371-4.324.814-5.624l-51.194-26.034c-4.969-2.527-11.045-.503-13.506 4.499l-77.569 157.669z"/><path d="m409.177 254.254-55.037-59.139h-196.28l-55.037 59.139c-2.976 3.198-.708 8.406 3.66 8.406h299.033c4.369.001 6.637-5.208 3.661-8.406z"/></g><g fill="#4b3087"><path d="m205.924 162.257 75.251-152.959-16.143-8.209c-4.969-2.527-11.045-.503-13.506 4.499l-77.076 156.669z"/><path d="m134.297 254.254 54.106-58.139h-31.474l-54.106 58.139c-2.976 3.198-.708 8.406 3.66 8.406h31.474c-4.369.001-6.636-5.208-3.66-8.406z"/></g><g><path d="m361.649 196.115h-211.298c-2.593 0-4.201-2.823-2.877-5.053l16.123-27.167c.603-1.016 1.696-1.638 2.877-1.638h179.051c1.181 0 2.274.623 2.877 1.638l16.123 27.167c1.325 2.23-.282 5.053-2.876 5.053z" fill="#c35ac7"/></g><g><path d="m189.24 191.062 16.123-27.167c.603-1.016 1.696-1.638 2.877-1.638h-41.766c-1.181 0-2.275.623-2.877 1.638l-16.123 27.167c-1.324 2.23.284 5.053 2.877 5.053h41.766c-2.593 0-4.201-2.823-2.877-5.053z" fill="#b342bc"/></g><g><path d="m285.56 210.975h-59.12c-4.142 0-7.5-3.357-7.5-7.5v-48.577c0-4.143 3.358-7.5 7.5-7.5h59.119c4.142 0 7.5 3.357 7.5 7.5v48.577c.001 4.142-3.357 7.5-7.499 7.5zm-48.62-15h38.119c1.657 0 3-1.343 3-3v-27.577c0-1.657-1.343-3-3-3h-38.119c-1.657 0-3 1.343-3 3v27.577c0 1.656 1.344 3 3 3z" fill="#fff"/></g><g><path d="m256 379.5c-15.885 0-30.827-6.193-42.073-17.439-2.929-2.93-2.929-7.678 0-10.607 2.929-2.928 7.678-2.928 10.606 0 8.413 8.413 19.588 13.047 31.466 13.047s23.053-4.634 31.466-13.047c2.929-2.928 7.678-2.928 10.606 0 2.929 2.93 2.929 7.678 0 10.607-11.244 11.246-26.186 17.439-42.071 17.439z" fill="#81b823"/></g><g><circle cx="330.5" cy="350.5" fill="#8bc727" r="10.5"/></g><g><circle cx="313.5" cy="374.5" fill="#8bc727" r="7.5"/></g><g fill="#fea613"><path d="m118.513 159.946h-39.959c-7.448 0-13.487-6.038-13.487-13.487s6.038-13.487 13.487-13.487h7.831c7.448 0 13.487-6.038 13.487-13.487s-6.039-13.485-13.487-13.485h-15.05c-20.474 23.464-36.542 50.866-46.933 80.919h94.112c7.448 0 13.487-6.038 13.487-13.487-.001-7.448-6.039-13.486-13.488-13.486z"/><path d="m458.452 129h-43.245c-7.448 0-13.487 6.038-13.487 13.487s6.038 13.487 13.487 13.487h23.493c7.448 0 13.487 6.038 13.487 13.487s-6.038 13.487-13.487 13.487h-48.726c-7.448 0-13.487 6.038-13.487 13.487 0 7.448 6.038 13.487 13.487 13.487h104.325c-7.012-29.385-19.312-56.712-35.847-80.922z"/><path d="m351.487 127h30.027c7.448 0 13.487-6.038 13.487-13.487 0-7.448-6.038-13.487-13.487-13.487h-30.027c-7.448 0-13.487 6.038-13.487 13.487 0 7.449 6.038 13.487 13.487 13.487z"/><path d="m135.487 112h30.027c7.448 0 13.487-6.038 13.487-13.487 0-7.448-6.038-13.487-13.487-13.487h-30.027c-7.448 0-13.487 6.038-13.487 13.487 0 7.449 6.038 13.487 13.487 13.487z"/></g></g></svg>